Soundstage Tom Petty and the Heartbreakers [BDRip-720p-Mkv-Eng-Dta][Nautilus-BT]




General
Complete name                    : C:\Soundstage Tom Petty and the Heartbreakers [BDRip-720p-Eng-Dts-Chapters][RiP By MaX].mkv
Format                           : Matroska
File size                        : 2.19 GiB
Duration                         : 55mn 54s
Overall bit rate                 : 5 597 Kbps
Encoded date                     : UTC 2010-12-29 14:19:02
Writing application              : mkvmerge v4.4.0 ('Die Wiederkehr') built on Oct 31 2010 21:52:48
Writing library                  : libebml v1.0.0 + libmatroska v1.0.0

Video
ID                               : 1
Format                           : AVC
Format/Info                      : Advanced Video Codec
Format profile                   : High@L4.1
Format settings, CABAC           : Yes
Format settings, ReFrames        : 5 frames
Muxing mode                      : Container profile=Unknown@4.1
Codec ID                         : V_MPEG4/ISO/AVC
Duration                         : 55mn 54s
Bit rate                         : 4 731 Kbps
Nominal bit rate                 : 4 969 Kbps
Width                            : 1 280 pixels
Height                           : 716 pixels
Display aspect ratio             : 16:9
Frame rate                       : 29.970 fps
Color space                      : YUV
Chroma subsampling               : 4:2:0
Bit depth                        : 8 bits
Scan type                        : Progressive
Bits/(Pixel*Frame)               : 0.172
Stream size                      : 1.85 GiB (85%)
Title                            : Soundstage: Tom Petty and the Heartbreakers [BDRip 720p][RiP By MaX]
Writing library                  : x264 core 112 r1834 a51816a
Encoding settings                : cabac=1 / ref=5 / deblock=1:1:0 / analyse=0x3:0x133 / me=hex / subme=7 / psy=1 / psy_rd=1.00:0.00 / mixed_ref=1 / me_range=16 / chroma_me=1 / trellis=1 / 8x8dct=1 / cqm=0 / deadzone=21,11 / fast_pskip=0 / chroma_qp_offset=-2 / threads=6 / sliced_threads=0 / nr=0 / decimate=1 / interlaced=0 / constrained_intra=0 / bframes=3 / b_pyramid=2 / b_adapt=2 / b_bias=0 / direct=3 / weightb=1 / open_gop=0 / weightp=1 / keyint=300 / keyint_min=29 / scenecut=40 / intra_refresh=0 / rc_lookahead=40 / rc=2pass / mbtree=1 / bitrate=4969 / ratetol=1.0 / qcomp=0.60 / qpmin=10 / qpmax=51 / qpstep=4 / cplxblur=20.0 / qblur=0.5 / ip_ratio=1.40 / aq=1:1.00
Language                         : Italian

Audio
ID                               : 2
Format                           : DTS
Format/Info                      : Digital Theater Systems
Codec ID                         : A_DTS
Duration                         : 55mn 54s
Bit rate mode                    : Constant
Bit rate                         : 755 Kbps
Channel(s)                       : 6 channels
Channel positions                : Front: L C R, Side: L R, LFE
Sampling rate                    : 48.0 KHz
Bit depth                        : 24 bits
Video delay                      : 2ms
Stream size                      : 302 MiB (13%)
Title                            : Eng Dts 5.1

Menu
00:00:00.000                     : :01
00:00:13.881                     : :02
00:04:43.817                     : :03
00:10:55.388                     : :04
00:14:45.818                     : :05
00:19:13.853                     : :06
00:21:42.134                     : :07
00:25:13.445                     : :08
00:31:14.639                     : :09
00:33:41.353                     : :10
00:39:56.527                     : :11
00:48:52.963                     : :12
